<?xml version="1.0" standalone="no"?><!DOCTYPE svg PUBLIC "-//W3C//DTD SVG 1.1//EN" "http://www.w3.org/Graphics/SVG/1.1/DTD/svg11.dtd"><svg t="1573033685965" class="icon" viewBox="0 0 1024 1024" version="1.1" xmlns="http://www.w3.org/2000/svg" p-id="2059" xmlns:xlink="http://www.w3.org/1999/xlink" width="48" height="48"><defs><style type="text/css"></style></defs><path d="M471.467 590.933c8.533-8.533 6.4-21.333 0-29.866-8.534-8.534-21.334-8.534-29.867 0L87.467 910.933s-2.134 0-2.134 2.134v-332.8c0-12.8-8.533-21.334-21.333-21.334s-21.333 8.534-21.333 21.334v401.066h407.466c12.8 0 21.334-8.533 21.334-21.333s-8.534-21.333-21.334-21.333h-332.8s0 2.133 2.134 0l352-347.734zM578.133 42.667c-12.8 0-21.333 8.533-21.333 21.333s8.533 21.333 21.333 21.333h332.8s0 2.134-2.133 4.267l-349.867 352c-8.533 8.533-6.4 21.333 0 29.867C567.467 480 580.267 480 588.8 473.6l349.867-352v-2.133 332.8c0 12.8 8.533 21.333 21.333 21.333s21.333-8.533 21.333-21.333v-409.6h-403.2z" p-id="2060"></path></svg>