<?xml version="1.0" standalone="no"?><!DOCTYPE svg PUBLIC "-//W3C//DTD SVG 1.1//EN" "http://www.w3.org/Graphics/SVG/1.1/DTD/svg11.dtd"><svg t="1572416567877" class="icon" viewBox="0 0 1025 1024" version="1.1" xmlns="http://www.w3.org/2000/svg" p-id="5811" xmlns:xlink="http://www.w3.org/1999/xlink" width="48.046875" height="48"><defs><style type="text/css"></style></defs><path d="M935.671 115.584C871.257 51.17 792.997 24.682 709.319 37.926c-66.22 10.234-133.644 45.752-196.853 102.34-63.812-56.588-131.236-92.106-197.456-102.34C231.331 24.682 153.071 51.17 88.658 115.584 23.642 180.6-7.059 266.084 1.368 355.78c9.03 89.096 55.384 178.192 134.246 257.054l100.534 100.534c53.578 54.18 108.36 108.961 109.564 110.165 0.602 0.602 1.204 0.602 1.806 1.204l164.346 164.346 48.761-48.16 4.816-4.214c9.03 0 265.482-267.287 322.07-324.477 78.862-78.862 125.216-167.958 134.246-257.054 9.631-89.096-21.07-174.58-86.086-239.595zM147.654 322.67c-6.02 18.06-9.632 34.916-10.836 47.558-1.806 13.846-13.244 24.08-27.09 24.08h-1.806c-16.856 0-30.1-15.652-27.09-32.508 3.612-21.07 9.03-40.334 15.05-57.792 6.02-16.254 25.284-22.876 40.334-14.448h0.602c10.234 6.622 15.05 20.468 10.836 33.11z m216.72-181.803c0 13.244-9.03 24.682-22.274 27.09-79.464 13.244-127.624 48.16-158.326 86.688-8.428 10.835-24.08 13.845-36.12 6.621h-0.602c-13.846-8.427-16.856-27.691-7.224-40.935 60.2-78.862 146.286-103.544 192.64-110.768 16.856-2.408 31.304 10.234 31.304 27.09v4.214z" p-id="5812"></path></svg>