<?xml version="1.0" standalone="no"?><!DOCTYPE svg PUBLIC "-//W3C//DTD SVG 1.1//EN" "http://www.w3.org/Graphics/SVG/1.1/DTD/svg11.dtd"><svg t="1572427750990" class="icon" viewBox="0 0 1024 1024" version="1.1" xmlns="http://www.w3.org/2000/svg" p-id="12464" xmlns:xlink="http://www.w3.org/1999/xlink" width="48" height="48"><defs><style type="text/css"></style></defs><path d="M229.952 64h564.096A166.4 166.4 0 0 1 960 229.952v564.096A166.4 166.4 0 0 1 794.048 960H229.952A166.4 166.4 0 0 1 64 794.048V229.952A166.4 166.4 0 0 1 229.952 64zM130.368 794.048c0 54.784 44.8 99.584 99.584 99.584h99.52v-99.584c0-54.72-44.8-99.52-99.52-99.52H130.368v99.52z m0-165.888h99.584a166.4 166.4 0 0 1 165.888 165.888v99.584h398.208c54.784 0 99.584-44.8 99.584-99.584V229.952c0-54.784-44.8-99.584-99.584-99.584H229.952c-54.784 0-99.584 44.8-99.584 99.584v398.208z m331.84-298.688a33.28 33.28 0 0 1 33.216 33.216v119.424l233.92-233.92a32.064 32.064 0 0 1 46.464 0 32.064 32.064 0 0 1 0 46.464L541.888 528.576h119.424a33.28 33.28 0 0 1 33.216 33.216 33.28 33.28 0 0 1-33.216 33.152h-199.04c-9.984 0-18.304-3.328-23.296-9.92a32.768 32.768 0 0 1-9.92-23.232V362.688a33.28 33.28 0 0 1 33.152-33.216z" p-id="12465"></path></svg>